<?xml version="1.0" standalone="no"?>
<!DOCTYPE svg PUBLIC "-//W3C//DTD SVG 20010904//EN"
 "http://www.w3.org/TR/2001/REC-SVG-20010904/DTD/svg10.dtd">
<svg version="1.0" xmlns="http://www.w3.org/2000/svg"
 width="688.000000pt" height="688.000000pt" viewBox="0 0 688.000000 688.000000"
 preserveAspectRatio="xMidYMid meet">
<metadata>
Created by potrace 1.14, written by Peter Selinger 2001-2017
</metadata>
<g transform="translate(0.000000,688.000000) scale(0.100000,-0.100000)"
fill="#000000" stroke="none">
<path d="M1590 6877 c0 -2 -5 -30 -11 -63 -7 -32 -13 -68 -15 -79 -1 -11 -3
-20 -4 -20 -2 0 -6 -19 -15 -65 -3 -19 -12 -63 -20 -98 -8 -34 -17 -74 -20
-90 -2 -15 -9 -49 -15 -77 -6 -27 -13 -61 -15 -75 -3 -14 -8 -36 -11 -50 -3
-14 -8 -34 -10 -45 -2 -11 -6 -31 -9 -45 -6 -26 -11 -47 -19 -90 -3 -14 -17
-81 -31 -150 -32 -151 -34 -158 -40 -190 -3 -14 -7 -34 -9 -45 -19 -89 -39
-184 -42 -205 -3 -14 -9 -41 -14 -60 -5 -19 -12 -48 -15 -65 -3 -16 -8 -43
-11 -60 -3 -16 -10 -50 -15 -75 -25 -109 -29 -139 -16 -147 7 -4 14 -8 17 -9
26 -4 263 -121 372 -183 43 -24 59 -29 62 -19 4 11 11 41 22 83 1 6 14 46 29
90 15 44 28 86 28 93 0 6 4 12 8 12 4 0 10 11 13 24 3 13 15 45 26 70 11 26
19 49 19 51 1 21 151 286 224 395 156 234 462 560 563 601 72 29 160 16 221
-33 163 -128 337 -306 459 -468 195 -260 340 -543 425 -831 l22 -77 46 26 c25
14 62 35 82 48 21 13 59 34 85 47 27 13 91 45 142 71 156 78 213 99 267 99
103 1 163 -67 258 -289 67 -157 128 -368 142 -496 3 -21 7 -50 10 -65 8 -41
18 -178 18 -255 1 -38 2 -68 3 -68 1 0 33 12 70 26 139 53 357 117 478 140 12
2 32 6 46 9 35 7 81 14 126 20 22 3 50 7 64 10 81 17 167 0 215 -42 46 -41 60
-75 59 -148 0 -91 -9 -199 -18 -214 -17 -26 142 58 230 123 23 17 55 40 70 51
16 11 68 59 115 107 205 203 343 454 413 748 20 81 25 110 43 230 9 63 10 472
1 511 -5 22 -21 125 -22 151 -1 3 -4 10 -8 14 -5 4 -8 15 -8 25 0 17 -40 163
-58 209 -5 14 -9 28 -8 31 0 3 -5 13 -13 22 -7 10 -11 17 -8 17 10 0 -82 160
-133 230 -62 84 -200 215 -289 274 -57 37 -185 108 -201 111 -3 0 -23 9 -45
19 -22 10 -49 22 -60 27 -30 13 -176 60 -204 65 -14 3 -28 7 -32 9 -12 8 -199
43 -269 50 -36 4 -78 9 -95 11 -38 5 -132 13 -210 19 -33 3 -80 8 -105 11 -47
7 -3350 18 -3350 11z"/>
<path d="M2624 5777 c-269 -276 -460 -620 -559 -1007 -10 -36 -19 -76 -21 -90
-3 -14 -7 -32 -10 -41 -3 -11 13 -32 47 -60 117 -100 160 -139 275 -254 67
-66 163 -172 215 -236 87 -107 102 -126 130 -169 8 -13 13 -11 32 11 12 14 29
36 37 49 60 90 218 276 334 391 42 43 84 81 252 235 l32 29 -32 125 c-18 69
-35 132 -38 140 -3 8 -21 56 -39 105 -68 187 -201 420 -336 588 -60 75 -232
257 -242 257 -3 0 -38 -33 -77 -73z"/>
<path d="M4235 4690 c-16 -10 -32 -17 -37 -14 -4 3 -8 1 -8 -4 0 -6 -12 -15
-27 -21 -95 -36 -441 -263 -558 -366 -90 -79 -116 -103 -180 -165 -137 -132
-274 -291 -353 -410 -20 -30 -40 -59 -44 -65 -20 -24 -68 -101 -68 -108 0 -5
-12 -24 -26 -43 -15 -19 -24 -34 -21 -34 4 0 -9 -27 -28 -59 -19 -33 -35 -62
-35 -65 0 -3 -11 -29 -24 -58 -65 -147 -123 -321 -141 -427 -3 -19 -8 -38 -10
-42 -3 -4 -8 -27 -11 -50 -3 -24 -7 -55 -9 -69 -20 -129 -20 -389 0 -510 3
-14 7 -43 11 -65 5 -33 16 -86 39 -175 2 -8 4 -19 4 -25 1 -5 47 82 104 195
56 113 137 262 181 331 77 124 207 311 236 341 8 9 24 28 35 44 74 104 391
433 500 519 28 22 55 45 60 51 38 44 354 265 498 349 54 31 67 44 68 65 1 14
3 45 5 70 21 259 -26 578 -118 797 l-14 32 -29 -19z"/>
<path d="M1152 4653 c-14 -38 -41 -125 -47 -151 -10 -45 -13 -58 -23 -97 -18
-69 -29 -147 -38 -265 -6 -93 -6 -76 0 -200 11 -205 22 -260 54 -287 15 -13
31 -23 36 -23 5 0 42 -20 83 -45 40 -25 76 -45 78 -45 5 0 228 -151 235 -159
3 -4 32 -26 65 -50 33 -24 67 -50 75 -58 8 -7 35 -30 60 -51 131 -109 365
-354 470 -492 19 -25 39 -48 45 -52 6 -5 14 23 22 75 16 105 21 137 27 162 20
92 39 167 52 205 9 25 17 52 19 60 4 18 43 127 55 155 5 11 25 56 45 99 l36
80 -57 85 c-46 70 -142 199 -199 269 -51 62 -193 210 -278 289 -82 76 -252
213 -266 213 -5 0 -11 4 -13 9 -3 10 -175 122 -258 170 -53 30 -256 131 -264
131 -2 0 -8 -12 -14 -27z"/>
<path d="M5416 3773 c-3 -4 -14 -8 -24 -9 -15 -3 -78 -15 -92 -19 -3 0 -32 -9
-65 -19 -33 -10 -64 -19 -70 -20 -5 -1 -14 -4 -20 -8 -10 -6 -82 -27 -100 -28
-5 -1 -18 -9 -29 -18 -10 -9 -20 -16 -22 -14 -26 19 -537 -246 -631 -328 -7
-5 -15 -10 -18 -10 -3 0 -11 -5 -18 -10 -7 -6 -61 -47 -122 -93 -60 -45 -121
-91 -134 -102 -111 -93 -316 -295 -406 -400 -33 -38 -62 -72 -65 -75 -16 -14
-143 -185 -191 -255 -30 -44 -57 -81 -61 -83 -5 -2 -8 -7 -8 -11 0 -4 -23 -46
-51 -92 -105 -174 -235 -459 -295 -649 -32 -102 -81 -311 -74 -315 4 -2 21 0
39 5 17 5 34 9 36 9 13 1 62 13 75 18 8 3 22 7 30 9 28 6 205 62 240 77 64 26
75 30 89 33 8 1 95 43 195 93 327 162 624 378 891 646 82 83 159 162 170 175
11 14 40 50 65 80 25 30 66 82 90 115 25 33 47 62 50 65 14 13 130 192 130
200 0 6 5 10 10 10 6 0 10 5 10 11 0 6 8 23 19 37 29 43 126 229 171 332 40
90 118 297 125 331 2 9 13 47 24 85 11 38 22 86 25 106 2 21 7 41 9 45 6 10
18 83 14 83 -2 0 -7 -3 -11 -7z"/>
<path d="M5760 3428 c-11 -40 -27 -89 -35 -108 -8 -19 -17 -46 -21 -60 -15
-54 -99 -261 -150 -367 -30 -62 -54 -117 -54 -123 0 -5 -4 -10 -10 -10 -5 0
-10 -5 -10 -10 0 -17 -107 -203 -193 -334 -37 -58 -188 -262 -227 -307 -101
-118 -116 -136 -150 -173 -19 -21 -82 -85 -140 -142 -57 -57 -102 -106 -98
-109 3 -3 14 -7 24 -9 66 -14 240 -84 354 -144 175 -91 336 -210 474 -346 268
-266 267 -327 -9 -599 -57 -57 -137 -129 -190 -170 -57 -45 -162 -117 -172
-117 -6 0 -13 -4 -15 -8 -1 -5 -38 -27 -80 -51 -43 -23 -78 -44 -78 -46 0 -12
300 128 405 190 33 19 70 40 83 47 12 6 22 15 22 20 0 4 4 8 10 8 11 0 102 62
153 105 7 6 32 26 57 45 72 54 240 227 312 320 71 92 158 224 158 240 0 6 5
10 10 10 6 0 9 3 8 7 -1 5 20 53 47 108 26 55 52 109 56 120 30 73 82 239 93
295 2 14 12 61 20 106 25 127 29 185 30 409 0 188 -5 274 -20 327 -3 10 -8 30
-10 45 -3 16 -12 53 -22 83 -9 30 -16 57 -17 60 -14 68 -120 285 -190 389 -79
117 -152 196 -255 275 -55 43 -135 96 -144 96 -3 0 -15 -33 -26 -72z"/>
<path d="M849 3323 c0 -5 -2 -15 -4 -23 -8 -36 -18 -86 -20 -105 -2 -11 -4
-20 -5 -20 -2 0 -6 -19 -14 -65 -3 -19 -15 -78 -26 -130 -11 -52 -23 -107 -25
-123 -3 -15 -12 -59 -20 -97 -8 -38 -17 -84 -20 -102 -3 -17 -7 -34 -9 -37 -2
-3 -7 -22 -10 -41 -3 -19 -10 -57 -16 -85 -6 -27 -13 -63 -16 -80 -3 -16 -12
-61 -20 -100 -13 -59 -13 -71 -1 -80 8 -5 14 -14 15 -18 1 -17 180 -207 293
-313 318 -294 784 -552 1174 -650 17 -4 37 -9 45 -11 8 -2 24 -6 35 -8 11 -3
27 -6 35 -8 8 -2 31 -7 50 -10 19 -4 49 -10 65 -13 84 -16 118 -17 112 -1 -3
8 -8 36 -12 63 -11 82 -73 308 -116 427 -58 158 -161 372 -242 502 -48 78
-112 171 -119 173 -4 2 -8 10 -8 18 0 8 -4 14 -10 14 -5 0 -10 6 -10 14 0 8
-4 16 -8 18 -5 2 -33 34 -63 73 -133 170 -338 374 -509 503 -41 31 -82 64 -92
72 -26 23 -266 173 -341 213 -70 37 -86 43 -88 30z"/>
<path d="M4197 1331 c-31 -22 -57 -37 -57 -33 0 4 -4 2 -8 -4 -17 -26 -427
-250 -477 -261 -5 -1 -44 -16 -85 -33 -91 -38 -337 -120 -438 -146 l-73 -18
48 -45 c163 -152 446 -296 678 -347 54 -11 73 -15 115 -20 25 -3 61 -7 80 -10
42 -6 266 -6 295 0 12 2 48 8 80 12 63 8 73 10 78 14 2 2 22 6 62 13 11 2 40
10 65 17 25 7 50 14 55 16 48 10 247 104 330 155 80 50 183 129 253 194 l65
61 -24 25 c-20 21 -116 103 -180 154 -26 20 -160 100 -214 127 -127 64 -340
134 -465 152 -130 19 -121 20 -183 -23z"/>
<path d="M950 1284 c-87 -26 -294 -113 -340 -143 -14 -10 -63 -43 -110 -74
-140 -93 -142 -95 -155 -172 -2 -11 -8 -40 -13 -64 -7 -28 -7 -51 -2 -62 11
-19 126 -108 210 -160 110 -70 335 -165 430 -183 14 -2 32 -7 40 -10 8 -3 31
-7 50 -10 19 -3 45 -8 56 -10 34 -7 190 -18 252 -18 120 0 247 18 402 58 54
13 170 58 246 94 162 77 421 267 369 271 -113 8 -482 95 -544 128 -11 7 -21 9
-21 7 0 -3 -20 3 -45 14 -25 11 -47 20 -50 20 -48 6 -322 137 -469 224 -122
73 -130 78 -155 97 -30 24 -47 23 -151 -7z"/>
<path d="M2696 525 c-204 -191 -552 -381 -851 -465 -44 -12 -87 -25 -95 -28
-20 -7 -28 -9 -42 -11 -6 0 -9 -4 -5 -7 8 -8 2336 -11 2331 -3 -2 4 -25 10
-51 13 -62 10 -72 12 -162 32 -42 9 -80 17 -86 19 -152 33 -363 105 -503 171
-51 24 -98 44 -103 44 -5 0 -9 5 -9 10 0 6 -4 10 -10 10 -27 0 -265 167 -325
229 -16 17 -32 31 -35 31 -3 0 -27 -20 -54 -45z"/>
</g>
</svg>
